HIERARCHY
ROOT Hips
{
	OFFSET 0.000000 0.000000 0.000000 
	CHANNELS 6 Xposition Yposition Zposition Zrotation Yrotation Xrotation
	JOINT LeftUpLeg
	{
		OFFSET 1.363060 -1.794630 0.839290 
		CHANNELS 3 Zrotation Yrotation Xrotation
		JOINT LeftLeg
		{
			OFFSET 2.448110 -6.726130 0.000000 
			CHANNELS 3 Zrotation Yrotation Xrotation
			JOINT LeftFoot
			{
				OFFSET 2.562200 -7.039590 0.000000 
				CHANNELS 3 Zrotation Yrotation Xrotation
				JOINT LeftToeBase
				{
					OFFSET 0.157640 -0.433110 2.322550 
					CHANNELS 3 Zrotation Yrotation Xrotation
					End Site
					{
						OFFSET 0.000000 0.000000 0.000000 
					}
				}
			}
		}
	}
	JOINT RightUpLeg
	{
		OFFSET -1.305520 -1.794630 0.839290 
		CHANNELS 3 Zrotation Yrotation Xrotation
		JOINT RightLeg
		{
			OFFSET -2.542530 -6.985550 0.000000 
			CHANNELS 3 Zrotation Yrotation Xrotation
			JOINT RightFoot
			{
				OFFSET -2.568260 -7.056230 0.000000 
				CHANNELS 3 Zrotation Yrotation Xrotation
				JOINT RightToeBase
				{
					OFFSET -0.164730 -0.452590 2.363150 
					CHANNELS 3 Zrotation Yrotation Xrotation
					End Site
					{
						OFFSET 0.000000 0.000000 0.000000 
					}
				}
			}
		}
	}
	JOINT Spine
	{
		OFFSET 0.028270 2.035590 -0.193380 
		CHANNELS 3 Zrotation Yrotation Xrotation
		JOINT Spine1
		{
			OFFSET 0.056720 2.048850 -0.042750 
			CHANNELS 3 Zrotation Yrotation Xrotation
			JOINT Neck1
			{
				OFFSET -0.054170 1.746240 0.172020 
				CHANNELS 3 Zrotation Yrotation Xrotation
				JOINT Head
				{
					OFFSET 0.104070 1.761360 -0.123970 
					CHANNELS 3 Zrotation Yrotation Xrotation
					End Site
					{
						OFFSET 0.000000 0.000000 0.000000 
					}
				}
			}
			JOINT LeftArm
			{
				OFFSET 3.362410 1.200890 -0.311210 
				CHANNELS 3 Zrotation Yrotation Xrotation
				JOINT LeftForeArm
				{
					OFFSET 4.983000 -0.000000 -0.000000 
					CHANNELS 3 Zrotation Yrotation Xrotation
					JOINT LeftHand
					{
						OFFSET 3.483560 -0.000000 -0.000000 
						CHANNELS 3 Zrotation Yrotation Xrotation
						JOINT LeftHandIndex1
						{
							OFFSET 0.715260 -0.000000 -0.000000 
							CHANNELS 3 Zrotation Yrotation Xrotation
							End Site
							{
								OFFSET 0.000000 0.000000 0.000000 
							}
						}
					}
				}
			}
			JOINT RightArm
			{
				OFFSET -3.136600 1.374050 -0.404650 
				CHANNELS 3 Zrotation Yrotation Xrotation
				JOINT RightForeArm
				{
					OFFSET -5.241900 -0.000000 -0.000000 
					CHANNELS 3 Zrotation Yrotation Xrotation
					JOINT RightHand
					{
						OFFSET -3.444170 -0.000000 -0.000000 
						CHANNELS 3 Zrotation Yrotation Xrotation
						JOINT RightHandIndex1
						{
							OFFSET -0.622530 -0.000000 -0.000000 
							CHANNELS 3 Zrotation Yrotation Xrotation
							End Site
							{
								OFFSET 0.000000 0.000000 0.000000 
							}
						}
					}
				}
			}
		}
	}
}
MOTION
Frames: 15
Frame Time: 0.041667
-1.069837 15.092440 14.761306 2.324482 6.194198 6.087171 -5.961194 5.966104 -48.643639 18.326664 23.357860 77.361903 -4.553302 11.866309 6.077690 0.487300 -4.476000 -12.419800 7.939331 -2.274309 -49.979668 -18.614375 -24.755523 80.506977 4.022189 -11.064171 2.462354 -0.538200 4.700400 -13.056100 -3.503810 -27.646067 -19.835310 2.627613 17.668709 2.906793 5.959447 -4.454979 8.171268 2.408800 -2.010700 3.687900 60.609394 -39.349953 -142.139473 26.504744 -44.283233 -56.057435 -5.163896 -6.679557 36.742043 -7.125000 0.000000 0.000000 5.672175 28.841293 -28.198626 -44.981329 38.325289 -67.851935 0.564514 9.477865 21.265494 7.125000 0.000000 0.000000 
-1.064889 15.095825 14.761045 2.276945 6.196842 6.063658 -5.963600 5.988571 -48.637121 18.324726 23.338038 77.332887 -4.587188 11.923275 6.086914 0.508300 -4.570300 -12.687000 7.948455 -2.259344 -49.958107 -18.602358 -24.769047 80.457685 4.047392 -11.102845 2.487323 -0.541100 4.713200 -13.092300 -3.315367 -27.712421 -19.682847 2.582527 17.646259 2.851902 5.951029 -4.440715 8.163245 2.419300 -2.003100 3.694300 60.516538 -39.260304 -142.183424 26.404828 -44.244152 -56.029915 -5.153269 -6.679149 36.718792 -7.125000 0.000000 0.000000 5.607407 28.814438 -28.247466 -44.933251 38.288636 -67.825601 0.564254 9.472607 21.249630 7.125000 0.000000 0.000000 
-1.060201 15.100773 14.761696 2.369172 6.140937 6.156178 -6.011685 5.988502 -48.638591 18.293265 23.359743 77.297595 -4.481460 11.753946 6.083642 0.536600 -4.693900 -13.037500 7.874046 -2.254865 -49.964170 -18.598441 -24.756098 80.413449 4.062144 -11.128395 2.524893 -0.542700 4.719800 -13.111200 -3.609544 -27.636105 -19.950703 2.666077 17.638623 2.958454 5.967177 -4.442795 8.175077 2.414300 -2.003400 3.692300 60.501634 -39.223715 -142.160577 26.321141 -44.232398 -55.982272 -5.162764 -6.672893 36.706025 -7.125000 0.000000 0.000000 5.653673 28.828176 -28.259603 -44.914994 38.323277 -67.805413 0.560408 9.481667 21.226216 7.125000 0.000000 0.000000 
-1.051868 15.107544 14.766254 2.233046 6.144443 6.009098 -6.024640 6.074544 -48.575441 18.294368 23.281549 77.265245 -4.514374 11.817129 6.085442 0.534500 -4.684700 -13.011300 7.880299 -2.199103 -49.832516 -18.573449 -24.800421 80.323958 4.059420 -11.121670 2.564403 -0.543500 4.723400 -13.121400 -2.937543 -27.773732 -19.472761 2.446597 17.614082 2.777772 5.922698 -4.436050 8.161586 2.413900 -2.000200 3.695000 60.421279 -39.158993 -142.196218 26.331109 -44.205360 -55.981513 -5.159052 -6.670595 36.731869 -7.125000 0.000000 0.000000 5.517107 28.764213 -28.353331 -44.880470 38.245119 -67.792331 0.561238 9.475820 21.252252 7.125000 0.000000 0.000000 
-1.047180 15.110409 14.765733 2.228547 6.136502 6.003502 -6.047694 6.092859 -48.578074 18.287300 23.273194 77.242956 -4.517447 11.823101 6.100844 0.549100 -4.747300 -13.189200 7.860038 -2.190088 -49.808309 -18.565803 -24.805119 80.284305 4.065234 -11.130545 2.592086 -0.544100 4.725900 -13.128400 -2.868848 -27.795834 -19.431928 2.424334 17.600857 2.754007 5.918606 -4.433208 8.159315 2.414200 -1.998500 3.693600 60.378988 -39.110307 -142.197731 26.290912 -44.188919 -55.965882 -5.162645 -6.670287 36.742003 -7.125000 0.000000 0.000000 5.482835 28.744796 -28.390789 -44.845804 38.225958 -67.768161 0.564780 9.477201 21.262984 7.125000 0.000000 0.000000 
-1.043143 15.111841 14.764170 2.229412 6.136765 6.002357 -6.068479 6.104947 -48.590516 18.283468 23.270327 77.230419 -4.522418 11.830572 6.117307 0.562500 -4.803800 -13.349800 7.844038 -2.187882 -49.796723 -18.561183 -24.806802 80.255688 4.069214 -11.136418 2.617200 -0.545000 4.729900 -13.139600 -2.835542 -27.817632 -19.405685 2.415552 17.590361 2.730614 5.916487 -4.433062 8.156928 2.413100 -1.998200 3.690200 60.344370 -39.068012 -142.188116 26.263087 -44.173347 -55.952435 -5.168537 -6.671202 36.755307 -7.125000 0.000000 0.000000 5.451887 28.726721 -28.419095 -44.812099 38.207000 -67.742892 0.572518 9.479640 21.277961 7.125000 0.000000 0.000000 
-1.039497 15.112623 14.762478 2.209295 6.154540 5.979857 -6.081117 6.115865 -48.598258 18.284794 23.261413 77.226632 -4.529725 11.841708 6.132355 0.573500 -4.849800 -13.480600 7.842041 -2.189810 -49.781105 -18.557921 -24.811433 80.237164 4.071879 -11.139943 2.632003 -0.545600 4.732200 -13.146300 -2.722178 -27.861020 -19.304394 2.392052 17.574947 2.680456 5.907007 -4.440107 8.152656 2.406700 -2.002000 3.687500 60.301715 -39.022633 -142.186538 26.238316 -44.154598 -55.940490 -5.175444 -6.673580 36.776405 -7.125000 0.000000 0.000000 5.409731 28.709685 -28.437221 -44.788654 38.177340 -67.717861 0.583915 9.480540 21.302371 7.125000 0.000000 0.000000 
-1.036502 15.112102 14.760264 2.186171 6.183952 5.956581 -6.087895 6.120182 -48.610496 18.289082 23.255027 77.229932 -4.532751 11.844841 6.148185 0.582400 -4.886500 -13.585300 7.848649 -2.198426 -49.776660 -18.557304 -24.815015 80.229700 4.073172 -11.141014 2.642077 -0.545500 4.731600 -13.144600 -2.611652 -27.910686 -19.190865 2.374966 17.559896 2.621842 5.898577 -4.448036 8.147603 2.401800 -2.006500 3.684000 60.263245 -38.981677 -142.172343 26.227575 -44.130464 -55.925757 -5.181180 -6.677695 36.789122 -7.125000 0.000000 0.000000 5.365335 28.691406 -28.449983 -44.766586 38.146568 -67.695454 0.598727 9.481451 21.323368 7.125000 0.000000 0.000000 
-1.032856 15.111711 14.759353 2.134115 6.219558 5.906003 -6.089273 6.136191 -48.609036 18.296120 23.234505 77.239236 -4.523153 11.829017 6.156270 0.586600 -4.903900 -13.634600 7.864694 -2.198763 -49.757429 -18.555099 -24.827114 80.219811 4.078033 -11.147400 2.648146 -0.546600 4.736400 -13.158400 -2.378505 -27.983584 -18.976307 2.322656 17.543451 2.528220 5.882460 -4.456055 8.141126 2.397700 -2.011200 3.681900 60.223392 -38.944704 -142.158150 26.237277 -44.101906 -55.910388 -5.184088 -6.682154 36.796703 -7.125000 0.000000 0.000000 5.302073 28.666567 -28.466245 -44.751826 38.107304 -67.681133 0.613943 9.480978 21.335865 7.125000 0.000000 0.000000 
-1.029341 15.111190 14.758832 2.067156 6.264737 5.842667 -6.084387 6.148908 -48.600219 18.305036 23.209090 77.253165 -4.506293 11.802020 6.158882 0.586600 -4.904000 -13.635000 7.888566 -2.201919 -49.734450 -18.552974 -24.842080 80.211878 4.084154 -11.155530 2.650681 -0.547000 4.738200 -13.163400 -2.083533 -28.063959 -18.710952 2.253062 17.523395 2.415434 5.864409 -4.462130 8.133779 2.397000 -2.015100 3.682600 60.186091 -38.910961 -142.135340 26.266036 -44.068825 -55.894106 -5.182985 -6.687761 36.798021 -7.125000 0.000000 0.000000 5.227245 28.634753 -28.491263 -44.737385 38.067406 -67.675716 0.627475 9.480509 21.340150 7.125000 0.000000 0.000000 
-1.025955 15.110018 14.758181 2.008088 6.306243 5.790622 -6.080460 6.157900 -48.598231 18.313699 23.187900 77.269844 -4.485331 11.767545 6.160887 0.584500 -4.895300 -13.610300 7.910240 -2.205957 -49.722074 -18.552962 -24.855643 80.209926 4.092881 -11.167715 2.650932 -0.548300 4.743600 -13.178600 -1.826757 -28.132116 -18.474435 2.193264 17.506046 2.314142 5.851772 -4.464769 8.128538 2.401300 -2.017200 3.686400 60.162479 -38.888381 -142.103537 26.310493 -44.039993 -55.884785 -5.178327 -6.692330 36.789772 -7.125000 0.000000 0.000000 5.159303 28.602355 -28.519364 -44.722609 38.037431 -67.679093 0.637755 9.481705 21.334667 7.125000 0.000000 0.000000 
-1.022570 15.108716 14.758050 1.950959 6.345495 5.742110 -6.076381 6.163674 -48.596193 18.322559 23.167872 77.290237 -4.461818 11.729164 6.157804 0.581700 -4.883800 -13.577300 7.931044 -2.212418 -49.710739 -18.552936 -24.868142 80.209831 4.097870 -11.174565 2.644520 -0.548100 4.742700 -13.176100 -1.579091 -28.190896 -18.250496 2.132304 17.488875 2.218972 5.842236 -4.465392 8.124495 2.409600 -2.018000 3.692300 60.149569 -38.874907 -142.066512 26.368037 -44.016859 -55.882530 -5.170801 -6.694497 36.777413 -7.125000 0.000000 0.000000 5.093717 28.567431 -28.552545 -44.707579 38.015259 -67.690298 0.644469 9.484375 21.319711 7.125000 0.000000 0.000000 
-1.018924 15.107805 14.758701 1.886746 6.387392 5.683229 -6.070801 6.168117 -48.584033 18.330553 23.144122 77.307202 -4.442736 11.698765 6.149987 0.579600 -4.875100 -13.552600 7.952553 -2.222013 -49.688174 -18.551475 -24.881270 80.205695 4.101282 -11.179374 2.637283 -0.548000 4.742400 -13.175400 -1.293614 -28.246646 -18.003157 2.058230 17.467911 2.118033 5.830420 -4.466568 8.120961 2.416200 -2.019200 3.701600 60.140442 -38.864779 -142.035494 26.433570 -44.002977 -55.894993 -5.160072 -6.695865 36.763366 -7.125000 0.000000 0.000000 5.024085 28.531074 -28.586844 -44.695586 37.993737 -67.704025 0.648376 9.487454 21.303311 7.125000 0.000000 0.000000 
-1.015147 15.107154 14.759873 1.817318 6.430360 5.616904 -6.064529 6.173217 -48.565404 18.338557 23.117287 77.323684 -4.429184 11.678214 6.138085 0.578100 -4.868700 -13.534500 7.974333 -2.233129 -49.657738 -18.549279 -24.894920 80.199073 4.103368 -11.182192 2.631249 -0.548600 4.745100 -13.183100 -0.982573 -28.297991 -17.741523 1.972711 17.445007 2.012574 5.818007 -4.466530 8.116737 2.424000 -2.019600 3.711400 60.137865 -38.859482 -142.005756 26.511682 -43.998858 -55.922495 -5.146344 -6.697974 36.745277 -7.125000 0.000000 0.000000 4.950799 28.491606 -28.622915 -44.685216 37.974491 -67.720864 0.651462 9.491597 21.285229 7.125000 0.000000 0.000000 
-1.011371 15.107414 14.761827 1.739255 6.477387 5.536903 -6.056949 6.177450 -48.533770 18.345217 23.085737 77.334165 -4.423498 11.671550 6.122624 0.578100 -4.868600 -13.534100 7.996830 -2.247342 -49.611832 -18.544533 -24.909214 80.183621 4.107705 -11.189289 2.626935 -0.550700 4.753700 -13.207500 -0.625650 -28.345785 -17.448715 1.876178 17.415441 1.901250 5.800624 -4.470932 8.111172 2.426800 -2.022300 3.720400 60.133444 -38.853581 -141.996548 26.582942 -44.008603 -55.965946 -5.133561 -6.701358 36.735872 -7.125000 0.000000 0.000000 4.880453 28.459901 -28.647694 -44.691208 37.956443 -67.740179 0.653253 9.494587 21.278166 7.125000 0.000000 0.000000 
